<?xml version="1.0" encoding="utf-8"?>
<!-- Generator: Adobe Illustrator 21.0.2, SVG Export Plug-In . SVG Version: 6.00 Build 0)  -->
<svg version="1.1" id="Layer_1" xmlns="http://www.w3.org/2000/svg" xmlns:xlink="http://www.w3.org/1999/xlink" x="0px" y="0px"
	 viewBox="0 0 80 34" style="enable-background:new 0 0 80 34;" xml:space="preserve">
<style type="text/css">
	.st0{clip-path:url(#SVGID_2_);fill:#423E3C;}
	.st1{clip-path:url(#SVGID_2_);fill:#B88D21;}
</style>
<g>
	<defs>
		<rect id="SVGID_1_" width="80" height="34"/>
	</defs>
	<clipPath id="SVGID_2_">
		<use xlink:href="#SVGID_1_"  style="overflow:visible;"/>
	</clipPath>
	<path class="st0" d="M6.4,6.3v5.4c0.6,0.1,1.1,0.1,1.5,0.1c1.4,0,2.5-0.2,3.2-0.6c0.7-0.4,1-1.2,1-2.4c0-1-0.3-1.6-1.1-2
		c-0.7-0.4-1.8-0.6-3.4-0.6C7.2,6.2,6.8,6.2,6.4,6.3z M13.7,22.6l-5.2-8c-0.5,0-1.2,0-2.2-0.1v8.1H2.9V3.3c0.2,0,0.9,0,2.2-0.1
		c1.3-0.1,2.3-0.1,3.1-0.1c4.9,0,7.4,1.9,7.4,5.7c0,1.1-0.3,2.2-1,3.1c-0.7,1-1.5,1.6-2.6,2l5.7,8.7H13.7z"/>
	<path class="st0" d="M21.8,14.1h6.9C28.5,12,27.3,11,25.3,11C23.4,11,22.2,12,21.8,14.1z M31.8,16.5H21.7c0.1,1.1,0.5,2,1.2,2.6
		c0.7,0.6,1.7,0.9,2.9,0.9c1.5,0,2.6-0.4,3.4-1.2l1.3,2.5c-1.2,1-2.9,1.4-5.2,1.4c-2.1,0-3.9-0.6-5.1-1.9c-1.2-1.3-1.9-3-1.9-5.3
		c0-2.2,0.7-4,2.1-5.4c1.4-1.4,3-2.1,5-2.1c2,0,3.7,0.6,4.9,1.8c1.2,1.2,1.9,2.8,1.9,4.7C32,15.1,32,15.7,31.8,16.5z"/>
	<path class="st0" d="M35.2,11.1h-1.6V8.5h1.6V5.6l3.3-1.2v4.1h3.9v2.6h-3.9v6.2c0,1,0.2,1.7,0.5,2.1c0.3,0.4,0.9,0.6,1.7,0.6
		s1.5-0.2,2.2-0.6v3c-0.8,0.3-1.9,0.4-3.3,0.4c-1.4,0-2.5-0.4-3.3-1.2c-0.8-0.8-1.1-1.9-1.1-3.4V11.1z"/>
	<path class="st0" d="M54.5,22.6v-1.2c-0.5,0.4-1.1,0.7-1.9,1c-0.8,0.3-1.6,0.4-2.3,0.4c-3.3,0-4.9-1.7-4.9-5.2V8.5h3.3v8.9
		c0,1.8,0.8,2.7,2.4,2.7c0.7,0,1.4-0.2,2.1-0.6c0.6-0.4,1.1-0.8,1.3-1.4V8.5h3.3v14.1H54.5z"/>
	<path class="st0" d="M63.9,3c0.5,0,1,0.2,1.4,0.6c0.4,0.4,0.6,0.8,0.6,1.4c0,0.5-0.2,1-0.6,1.4c-0.4,0.4-0.8,0.6-1.4,0.6
		c-0.5,0-1-0.2-1.4-0.6C62.2,5.9,62,5.4,62,4.9c0-0.5,0.2-1,0.6-1.4C62.9,3.2,63.4,3,63.9,3z M62.2,22.6V11.2h-1.8V8.5h5.1v14.1
		L62.2,22.6L62.2,22.6z"/>
	<path class="st0" d="M69.9,11.1h-1.6V8.5h1.6V5.6l3.3-1.2v4.1h3.9v2.6h-3.9v6.2c0,1,0.2,1.7,0.5,2.1c0.3,0.4,0.9,0.6,1.7,0.6
		c0.8,0,1.5-0.2,2.2-0.6v3c-0.8,0.3-1.9,0.4-3.3,0.4c-1.4,0-2.5-0.4-3.3-1.2c-0.8-0.8-1.1-1.9-1.1-3.4V11.1z"/>
	<path class="st1" d="M5.8,30.1l-0.8-2.5l-0.9,2.5H5.8z M5.9,30.6h-2l-0.4,1.1H3l1.6-4.5h0.5l1.6,4.5H6.3L5.9,30.6z"/>
	<path class="st1" d="M13.3,29.2v0.1c0,1.3-1.1,2.3-2.3,2.3c-1.3,0-2.3-1.1-2.3-2.3c0-1.3,1-2.3,2.3-2.3c0.9,0,1.6,0.5,2,1.2
		l-0.4,0.2c-0.3-0.6-0.9-0.9-1.6-0.9c-1,0-1.8,0.8-1.8,1.8c0,1,0.8,1.8,1.8,1.8c0.9,0,1.7-0.7,1.8-1.5H11v-0.4L13.3,29.2L13.3,29.2z
		"/>
	<polygon class="st1" points="16.4,27.5 16.4,29.1 18.1,29.1 18.1,29.6 16.4,29.6 16.4,31.1 18.4,31.1 18.4,31.6 15.9,31.6 
		15.9,27.1 18.4,27.1 18.4,27.5 	"/>
	<polygon class="st1" points="24.7,27.1 24.7,31.6 24.2,31.6 21.4,27.9 21.4,31.6 21,31.6 21,27.1 21.4,27.1 24.2,30.8 24.2,27.1 	
		"/>
	<path class="st1" d="M27.2,29.4c0-1.3,1.1-2.3,2.3-2.3c0.9,0,1.6,0.5,2,1.2l-0.4,0.2c-0.3-0.6-0.9-0.9-1.6-0.9
		c-1,0-1.8,0.8-1.8,1.8c0,1,0.8,1.8,1.8,1.8c0.7,0,1.3-0.4,1.6-0.9l0.4,0.2c-0.4,0.7-1.2,1.2-2,1.2C28.2,31.7,27.2,30.6,27.2,29.4z"
		/>
	<rect x="33.9" y="27.1" class="st1" width="0.5" height="4.5"/>
	<path class="st1" d="M39.3,30.1l-0.8-2.5l-0.8,2.5H39.3z M39.5,30.6h-2l-0.4,1.1h-0.5l1.6-4.5h0.5l1.6,4.5h-0.5L39.5,30.6z"/>
	<path class="st1" d="M47.1,31.1c1,0,1.8-0.8,1.8-1.8c0-1-0.8-1.8-1.8-1.8h-0.8v3.6L47.1,31.1L47.1,31.1z M45.9,27.1h1.2
		c1.2,0,2.3,1,2.3,2.3s-1,2.3-2.3,2.3h-1.2V27.1z"/>
	<rect x="52" y="27.1" class="st1" width="0.5" height="4.5"/>
	<path class="st1" d="M59.7,29.2v0.1c0,1.3-1.1,2.3-2.3,2.3c-1.3,0-2.3-1.1-2.3-2.3c0-1.3,1-2.3,2.3-2.3c0.9,0,1.6,0.5,2,1.2
		l-0.4,0.2c-0.3-0.6-0.9-0.9-1.6-0.9c-1,0-1.8,0.8-1.8,1.8c0,1,0.8,1.8,1.8,1.8c0.9,0,1.7-0.7,1.8-1.5h-1.8v-0.4L59.7,29.2
		L59.7,29.2z"/>
	<rect x="62.2" y="27.1" class="st1" width="0.5" height="4.5"/>
	<polygon class="st1" points="67.9,27.6 66.7,27.6 66.7,31.6 66.2,31.6 66.2,27.6 64.9,27.6 64.9,27.1 67.9,27.1 67.9,27.6 	"/>
	<path class="st1" d="M72.2,30.1l-0.8-2.5l-0.8,2.5H72.2z M72.4,30.6h-2L70,31.6h-0.5l1.6-4.5h0.5l1.6,4.5h-0.5L72.4,30.6z"/>
	<polygon class="st1" points="77.6,31.1 77.6,31.6 75.4,31.6 75.4,27.1 75.9,27.1 75.9,31.1 	"/>
</g>
</svg>
